<?xml version="1.0"?>
<svg xmlns="http://www.w3.org/2000/svg" id="Layer_1" enable-background="new 0 0 511.992 511.992" height="512px" viewBox="0 0 511.992 511.992" width="512px"><g><path d="m383.996 0h-256c-48.52 0-88 39.48-88 88v256c0 48.52 39.48 88 88 88h70.94l43.34 72.23c6.187 10.319 21.216 10.381 27.44 0l43.34-72.23h70.94c48.52 0 88-39.48 88-88v-256c0-48.52-39.48-88-88-88zm6.92 303.74-33.94 33.94c-9.52 9.52-22.61 14.31-38.35 14.31-99.588 0-250.016-178.484-187.92-240.58l33.94-33.94c6.231-6.251 16.397-6.254 22.63 0l62.22 62.22c6.25 6.25 6.25 16.38 0 22.63l-29.93 29.94c7.651 18.274 38.175 48.831 56.56 56.56l29.94-29.93c6.268-6.268 16.396-6.234 22.63 0l62.22 62.22c6.25 6.25 6.25 16.38 0 22.63z" data-original="#000000" class="active-path" data-old_color="#000000" fill="#194C80"/><path d="m294.756 275.46c-18.969 18.97-54.583-9.333-73.54-28.29-18.945-18.946-47.265-54.586-28.28-73.54l22.62-22.63-39.6-39.59-22.62 22.62c-7.03 7.03-6.48 24.19 1.44 44.77 20.424 53.103 81.369 114.256 134.81 134.81 20.58 7.92 37.74 8.47 44.77 1.44l22.62-22.62-39.6-39.6z" data-original="#000000" class="active-path" data-old_color="#000000" fill="#194C80"/></g> </svg>
