<?xml version="1.0"?>
<svg xmlns="http://www.w3.org/2000/svg" xmlns:xlink="http://www.w3.org/1999/xlink" version="1.1" id="Capa_1" x="0px" y="0px" viewBox="0 0 512 512" style="enable-background:new 0 0 512 512;" xml:space="preserve" width="512px" height="512px" class=""><g><polygon style="fill:#E7ECED;" points="423.724,0 150.069,0 150.069,300.138 150.069,476.69 353.103,476.69 512,476.69 512,79.448   " data-original="#E7ECED" class=""/><polygon style="fill:#AFB6BB;" points="423.724,0 423.724,79.448 512,79.448 " data-original="#AFB6BB" class=""/><rect x="194.207" y="44.138" style="fill:#EB7D16" width="123.586" height="123.586" data-original="#DD352E" class="" data-old_color="#DD352E"/><g>
	<path style="fill:#AFB6BB;" d="M388.414,88.276h-35.31c-4.873,0-8.828-3.955-8.828-8.828c0-4.873,3.955-8.828,8.828-8.828h35.31   c4.873,0,8.828,3.955,8.828,8.828C397.241,84.321,393.287,88.276,388.414,88.276z" data-original="#AFB6BB" class=""/>
	<path style="fill:#AFB6BB;" d="M467.862,132.414H353.103c-4.873,0-8.828-3.955-8.828-8.828s3.955-8.828,8.828-8.828h114.759   c4.873,0,8.828,3.955,8.828,8.828S472.735,132.414,467.862,132.414z" data-original="#AFB6BB" class=""/>
	<path style="fill:#AFB6BB;" d="M467.862,176.552H353.103c-4.873,0-8.828-3.955-8.828-8.828s3.955-8.828,8.828-8.828h114.759   c4.873,0,8.828,3.955,8.828,8.828S472.735,176.552,467.862,176.552z" data-original="#AFB6BB" class=""/>
	<path style="fill:#AFB6BB;" d="M467.862,220.69H194.207c-4.873,0-8.828-3.955-8.828-8.828c0-4.873,3.955-8.828,8.828-8.828h273.655   c4.873,0,8.828,3.955,8.828,8.828C476.69,216.735,472.735,220.69,467.862,220.69z" data-original="#AFB6BB" class=""/>
	<path style="fill:#AFB6BB;" d="M467.862,264.828H194.207c-4.873,0-8.828-3.955-8.828-8.828s3.955-8.828,8.828-8.828h273.655   c4.873,0,8.828,3.955,8.828,8.828S472.735,264.828,467.862,264.828z" data-original="#AFB6BB" class=""/>
	<path style="fill:#AFB6BB;" d="M467.862,308.966h-70.621c-4.873,0-8.828-3.955-8.828-8.828c0-4.873,3.955-8.828,8.828-8.828h70.621   c4.873,0,8.828,3.955,8.828,8.828C476.69,305.011,472.735,308.966,467.862,308.966z" data-original="#AFB6BB" class=""/>
	<path style="fill:#AFB6BB;" d="M467.862,353.103h-70.621c-4.873,0-8.828-3.955-8.828-8.828c0-4.873,3.955-8.828,8.828-8.828h70.621   c4.873,0,8.828,3.955,8.828,8.828C476.69,349.149,472.735,353.103,467.862,353.103z" data-original="#AFB6BB" class=""/>
	<path style="fill:#AFB6BB;" d="M467.862,397.241h-70.621c-4.873,0-8.828-3.955-8.828-8.828s3.955-8.828,8.828-8.828h70.621   c4.873,0,8.828,3.955,8.828,8.828S472.735,397.241,467.862,397.241z" data-original="#AFB6BB" class=""/>
	<path style="fill:#AFB6BB;" d="M467.862,441.379h-70.621c-4.873,0-8.828-3.955-8.828-8.828s3.955-8.828,8.828-8.828h70.621   c4.873,0,8.828,3.955,8.828,8.828S472.735,441.379,467.862,441.379z" data-original="#AFB6BB" class=""/>
</g><rect y="300.138" style="fill:#EB7D16" width="353.103" height="211.862" data-original="#EBBA16" class="active-path" data-old_color="#EBBA16"/><polygon style="fill:#C06006" points="176.552,406.069 0,300.138 353.103,300.138 " data-original="#C69714" class="" data-old_color="#C69714"/><g>
	<path style="fill:#F7D063" d="M61.793,450.207H35.31c-4.873,0-8.828-3.955-8.828-8.828s3.955-8.828,8.828-8.828h26.483   c4.873,0,8.828,3.955,8.828,8.828S66.666,450.207,61.793,450.207z" data-original="#F7D063" class="" data-old_color="#F7D063"/>
	<path style="fill:#F7D063" d="M105.931,485.517H35.31c-4.873,0-8.828-3.955-8.828-8.828c0-4.873,3.955-8.828,8.828-8.828h70.621   c4.873,0,8.828,3.955,8.828,8.828C114.759,481.562,110.804,485.517,105.931,485.517z" data-original="#F7D063" class="" data-old_color="#F7D063"/>
</g><circle style="fill:#EB7D16" cx="256" cy="105.931" r="26.483" data-original="#EBBA16" class="active-path" data-old_color="#EBBA16"/></g> </svg>
