<?xml version="1.0"?>
<svg xmlns="http://www.w3.org/2000/svg" id="Capa_1" enable-background="new 0 0 512 512" height="512px" viewBox="0 0 512 512" width="512px"><g><g><g><path d="m421 362v-137c0-78.267-55.518-146.265-131.777-161.646-20.273-4.453-46.436-4.395-66.182-.059-76.523 15.44-132.041 83.438-132.041 161.705v137z" data-original="#000000" class="active-path" data-old_color="#000000" fill="#04458F"/><path d="m423.763 392h-335.526c-6.213 17.422-22.707 30-42.237 30v30h420v-30c-19.53 0-36.024-12.578-42.237-30z" data-original="#000000" class="active-path" data-old_color="#000000" fill="#04458F"/></g><path d="m217.094 33.882c11.338-2.476 24.932-3.853 38.848-3.853 14.004 0 27.744 1.392 39.727 4.028 1.459.295 2.772.923 4.219 1.249-4.454-20.16-22.408-35.306-43.888-35.306-21.498 0-39.47 15.174-43.903 35.359 1.71-.393 3.268-1.127 4.997-1.477z" data-original="#000000" class="active-path" data-old_color="#000000" fill="#04458F"/><path d="m213.763 482c6.213 17.422 22.707 30 42.237 30s36.024-12.578 42.237-30z" data-original="#000000" class="active-path" data-old_color="#000000" fill="#04458F"/></g></g> </svg>
